<?xml version="1.0" encoding="UTF-8"?>
<svg viewBox="0 0 1254 1254" version="1.1" xmlns="http://www.w3.org/2000/svg" width="1254" height="1254">
<path d="M0 0 C413.82 0 827.64 0 1254 0 C1254 413.82 1254 827.64 1254 1254 C840.18 1254 426.36 1254 0 1254 C0 840.18 0 426.36 0 0 Z " fill="#FDFDFD" transform="translate(0,0)"/>
<path d="M0 0 C0.66080566 0.32371582 1.32161133 0.64743164 2.00244141 0.98095703 C15.61398904 7.66941923 27.39454591 16.10580454 38.3828125 26.53515625 C40.47592722 28.50643295 42.5913117 30.3661256 44.8125 32.1875 C63.41295666 47.91794655 76.6012843 71.88816004 86 94 C86.26119629 94.60811523 86.52239258 95.21623047 86.79150391 95.84277344 C92.85693226 110.1765158 96.53505023 125.51563846 98 141 C98.66 140.97679687 99.32 140.95359375 100 140.9296875 C125.53690198 140.46417106 151.06040926 144.84252915 175.91186523 150.34838867 C178.74687883 150.94659021 181.5739795 151.4373182 184.4375 151.875 C189.59637026 152.7778023 194.44352639 154.39790488 199.37597656 156.1105957 C203.28193541 157.45841958 207.16874922 158.60515361 211.1875 159.5625 C224.99639869 162.87145966 237.87066908 168.43944194 250.66137695 174.5012207 C253.50724377 175.84889631 256.35064542 177.14344585 259.265625 178.3359375 C284.71280399 189.15409621 308.0370089 207.10127175 328 226 C329.42892578 227.34964844 329.42892578 227.34964844 330.88671875 228.7265625 C337.83157093 235.41067499 343.93032853 242.53166967 349.69287109 250.25292969 C350.94258103 251.92325549 352.21398041 253.57497164 353.48828125 255.2265625 C361.21330951 265.43694108 367.13254955 276.64992417 373 288 C373.598125 289.15242188 374.19625 290.30484375 374.8125 291.4921875 C383.27324799 308.82752441 389.10452824 328.03653349 392.0625 347.0625 C392.9825658 352.86002302 393.90096863 358.64354937 395.08203125 364.39453125 C398.97701742 383.48205245 398.38113193 405.50424287 395.0625 424.6484375 C394.38706941 428.6217022 393.76159206 432.59351519 393.2109375 436.5859375 C389.20827022 464.83103674 381.97568101 494.50798762 369.34375 520.2421875 C368.04013393 522.91763211 366.91479731 525.61138317 365.8125 528.375 C352.05942395 561.60068532 333.29268614 593.07422148 312 622 C311.2560498 623.01199463 311.2560498 623.01199463 310.49707031 624.04443359 C307.04090235 628.7292393 303.53673195 633.37577663 300 638 C299.31405762 638.8986377 299.31405762 638.8986377 298.61425781 639.81542969 C291.43109861 649.19128832 283.82444329 658.15475013 276 667 C275.23042969 667.87140625 274.46085938 668.7428125 273.66796875 669.640625 C249.42519071 696.80692915 249.42519071 696.80692915 236.1484375 708.1328125 C233.96788811 710.02790815 231.8460471 711.97953836 229.72900391 713.94506836 C223.68114397 719.5551912 217.44357209 724.84514233 211 730 C209.82237057 730.9576622 208.64531789 731.91603391 207.46875 732.875 C187.83715578 748.81893397 166.75156769 763.26272418 144.85791016 775.92382812 C142.86168644 777.08011645 140.87411858 778.2504906 138.88671875 779.421875 C131.56009207 783.71910679 124.18710926 787.91560826 116.7265625 791.9765625 C116.09076263 792.32357712 115.45496277 792.67059174 114.79989624 793.02812195 C111.64310968 794.75071725 108.48259609 796.46554934 105.31396484 798.16625977 C83.7870722 809.82048225 69.11135063 825.6808797 54.56347656 844.93994141 C53.18644544 846.75433688 51.79785786 848.55832415 50.3984375 850.35546875 C41.13274173 862.26203872 32.19700986 874.44550463 23.92578125 887.06640625 C22.58646708 889.10661912 21.22821866 891.13447639 19.85546875 893.15234375 C14.41273146 901.1539283 9.26354653 909.32376461 4.1875 917.5625 C3.16184937 919.22708252 3.16184937 919.22708252 2.11547852 920.92529297 C-1.21719271 926.36345092 -4.49696499 931.82355944 -7.671875 937.35546875 C-8.24574951 938.35054443 -8.81962402 939.34562012 -9.41088867 940.37084961 C-10.47777949 942.23069343 -11.53347478 944.097025 -12.57543945 945.97094727 C-15.9788558 951.90401444 -19.75923027 956.87961513 -26 960 C-29.3125 960.375 -29.3125 960.375 -33 960 C-35.875 957.5625 -35.875 957.5625 -38 955 C-38.33 954.67 -38.66 954.34 -39 954 C-40.23745513 945.02845028 -36.32242 939.26661774 -31.75 931.8125 C-31.0594324 930.65274215 -30.37061605 929.49193966 -29.68359375 928.33007812 C-27.14882118 924.08002743 -24.59206356 919.87451894 -21.81738281 915.77612305 C-20.24076277 913.36777451 -19.4306927 911.79950254 -19 909 C-25.27850368 912.23438068 -29.71285487 917.47142796 -34.2734375 922.7421875 C-60.40412208 952.7091084 -60.40412208 952.7091084 -70.18359375 954.37109375 C-74.3386942 954.49351439 -76.46757176 954.33684235 -80.0625 952.0625 C-82.28779409 948.54509966 -82.85444761 946.43989884 -82.609375 942.328125 C-81.43632403 937.84646872 -78.2648064 935.12231959 -75 932 C-74.02740234 930.99453125 -74.02740234 930.99453125 -73.03515625 929.96875 C-69.31924441 926.14246454 -65.43588695 922.58129274 -61.390625 919.109375 C-57.61427834 915.77730442 -53.97172252 912.30167051 -50.30566406 908.84912109 C-45.98381345 904.81593924 -41.49284854 901.14676687 -36.6953125 897.68359375 C-36.13585937 897.12800781 -35.57640625 896.57242188 -35 896 C-35 894.68 -35 893.36 -35 892 C-39.46532751 892.87096111 -42.07283894 895.40777438 -45.375 898.375 C-46.63998857 899.48398594 -47.90696529 900.59070761 -49.17578125 901.6953125 C-49.81725098 902.25379883 -50.4587207 902.81228516 -51.11962891 903.38769531 C-62.15613266 912.85083096 -74.01987363 921.4270574 -85.61230469 930.18603516 C-87.17373066 931.37227186 -88.72689689 932.56948072 -90.27050781 933.77880859 C-91.31609863 934.59019287 -91.31609863 934.59019287 -92.3828125 935.41796875 C-92.98754395 935.89387451 -93.59227539 936.36978027 -94.21533203 936.86010742 C-98.33080758 939.48871965 -103.24385748 939.548422 -108 939 C-110.91927604 937.6038245 -112.72202996 936.27797004 -115 934 C-115.91533906 930.17519037 -115.86966239 926.83163016 -115 923 C-112.32883107 919.21475818 -108.72167884 916.68201119 -105 914 C-103.65351609 913.00277932 -102.30717054 912.00537181 -100.9609375 911.0078125 C-97.12837798 908.19476 -93.25869814 905.43685047 -89.37890625 902.68945312 C-85.56867726 899.98350232 -81.78528289 897.24068083 -78 894.5 C-73.31722017 891.11449071 -68.63115288 887.73370439 -63.9375 884.36328125 C-63.11121094 883.76902344 -62.28492188 883.17476562 -61.43359375 882.5625 C-59.84352208 881.41907768 -58.25241933 880.27708747 -56.66015625 879.13671875 C-55.94730469 878.62367188 -55.23445313 878.110625 -54.5 877.58203125 C-53.8709375 877.13061768 -53.241875 876.6792041 -52.59375 876.21411133 C-50.86112759 874.95045193 -50.86112759 874.95045193 -49 873 C-49 871.68 -49 870.36 -49 869 C-53.76746115 870.6137441 -57.57015772 873.24634732 -61.6875 876.0625 C-63.28311628 877.13911524 -64.87952066 878.21456306 -66.4765625 879.2890625 C-67.34958008 879.87719727 -68.22259766 880.46533203 -69.12207031 881.07128906 C-74.01127026 884.34789914 -78.92620076 887.58497018 -83.84805298 890.81222534 C-85.52565401 891.91331619 -87.20072324 893.01826138 -88.87573242 894.12329102 C-106.94533228 905.96828773 -106.94533228 905.96828773 -114 905 C-117.50041622 903.83319459 -119.03438757 902.07801946 -121 899 C-121.46875 896.6328125 -121.46875 896.6328125 -121.5 894.125 C-121.5309375 893.30257812 -121.561875 892.48015625 -121.59375 891.6328125 C-120.15692261 885.26161738 -114.59822869 881.68544777 -109.375 878.375 C-108.72023682 877.94880371 -108.06547363 877.52260742 -107.39086914 877.08349609 C-103.18201725 874.3565509 -98.93096123 871.6965949 -94.68188477 869.03295898 C-85.8652525 863.50206393 -77.12063274 857.86732348 -68.43655396 852.13079834 C-67.12310953 851.26463282 -65.80779133 850.40130076 -64.490448 849.54107666 C-49.34953007 840.71239185 -49.34953007 840.71239185 -40.375 826.9375 C-40.25125 825.638125 -40.1275 824.33875 -40 823 C-46.40544096 820.86485301 -54.28203534 822.46265008 -60.75 824.0625 C-66.51153607 825.45795461 -71.67846864 825.83224709 -77.3125 823.8125 C-81.2448173 821.16047205 -83.49898186 818.50305441 -85 814 C-85.46345203 810.5572135 -85.66939925 808.08368543 -83.80078125 805.05859375 C-79.11130709 799.40051283 -75.26512363 797.86231662 -68 796.6875 C-66.87198975 796.50247925 -66.87198975 796.50247925 -65.72119141 796.3137207 C-60.04295301 795.40891071 -54.35014312 794.64410397 -48.6484375 793.90625 C-25.48434984 790.89045724 -2.55793442 787.46513602 19 778 C19.91330078 777.60071289 20.82660156 777.20142578 21.76757812 776.79003906 C37.23357489 769.92457241 51.25649306 761.84878614 65 752 C65.70334473 751.50081055 66.40668945 751.00162109 67.13134766 750.48730469 C71.47569844 747.39578754 75.75889993 744.23154164 80 741 C80.58297852 740.55591797 81.16595703 740.11183594 81.76660156 739.65429688 C104.8454466 721.97958911 128.12091953 702.31726055 147.0625 680.21875 C148.98565071 678.01643225 150.96016794 675.86763554 152.94921875 673.72485352 C157.67075448 668.63384144 162.20470289 663.44831215 166.55859375 658.03515625 C168.39005737 655.75828067 170.23569658 653.49777908 172.09765625 651.24609375 C179.11363341 642.73883282 185.73906124 634.07527981 192 625 C192.49999512 624.27941406 192.99999023 623.55882812 193.51513672 622.81640625 C208.77375622 600.80762215 223.41487312 578.44572695 234.93994141 554.21044922 C235.6861151 552.65451724 236.44477356 551.10454168 237.21240234 549.55908203 C261.05921444 501.51595553 277.44955452 443.50457821 260.27734375 390.78125 C252.50564069 368.28627029 240.45303564 346.39380222 222 331 C221.25878906 330.35933594 220.51757812 329.71867187 219.75390625 329.05859375 C193.75422964 307.24277315 161.61392224 301.53201338 128.52880859 304.19921875 C124.20694939 304.70197615 120.15605562 305.7374577 116 307 C115.21931152 307.22574707 114.43862305 307.45149414 113.63427734 307.68408203 C79.21646515 317.74287734 50.5743892 339.64696689 29.27783203 368.28662109 C28.07605878 369.89801672 26.84935684 371.49073473 25.62109375 373.08203125 C19.76018562 380.91266797 14.81609225 389.22376346 9.9375 397.6875 C9.59972534 398.27301636 9.26195068 398.85853271 8.91394043 399.46179199 C4.99391002 406.01630717 4.99391002 406.01630717 2 413 C-2.20100809 412.69132378 -4.05650136 411.29788644 -6.79052734 408.15380859 C-7.23090332 407.62867676 -7.6712793 407.10354492 -8.125 406.5625 C-21.29266971 391.58198732 -36.91330439 380.08417704 -54 370 C-54.92554688 369.43410156 -55.85109375 368.86820313 -56.8046875 368.28515625 C-78.63026882 356.07707887 -106.52166973 353.06790827 -130.69140625 359.01953125 C-132.32916016 359.50486328 -132.32916016 359.50486328 -134 360 C-134.62116699 360.18224121 -135.24233398 360.36448242 -135.88232422 360.55224609 C-154.37137437 366.07267339 -170.07681716 374.92400336 -185 387 C-185.7528125 387.59683594 -186.505625 388.19367188 -187.28125 388.80859375 C-203.16771516 401.95275242 -215.55843068 422.34196373 -221.94921875 441.84375 C-222.8717604 444.61480447 -223.93920022 447.2102814 -225.125 449.875 C-227.56707819 455.86740873 -228.49519354 462.14467852 -229.5378418 468.49755859 C-229.89024447 470.40570829 -230.30094236 472.30318701 -230.73754883 474.19384766 C-233.05459694 484.51014611 -233.59782629 494.44351656 -233.5625 505 C-233.56234894 505.86662262 -233.56219788 506.73324524 -233.56204224 507.62612915 C-233.38787668 558.85719231 -212.41494812 609.30743778 -178 647 C-177.24203125 647.83015625 -176.4840625 648.6603125 -175.703125 649.515625 C-160.37699976 665.51296741 -138.78004441 679.47505672 -117.33984375 685.34765625 C-114.27307997 686.20266385 -111.2942074 687.2704416 -108.30078125 688.3515625 C-95.46037192 691.9704215 -76.90818791 692.37088053 -65 686 C-59.1764847 682.42549154 -55.54271713 677.30425734 -53 671 C-50.39634884 658.95399368 -52.21438992 647.1175485 -54.56347656 635.23095703 C-59.9609455 607.64590607 -59.9609455 607.64590607 -56.9453125 602.0390625 C-55.21446332 599.85757803 -53.49864081 598.24932041 -51 597 C-47.11066477 596.55803009 -45.28405733 596.84404696 -41.8125 598.75 C-36.73652041 602.81078367 -35.1955385 606.89179617 -33.5 613.0625 C-33.28279297 613.82183838 -33.06558594 614.58117676 -32.84179688 615.36352539 C-31.65453338 619.53799698 -30.56112343 623.72918095 -29.5 627.9375 C-27.78899299 634.2336213 -25.57242911 640.57048362 -20.75 645.125 C-15.30117063 646.85871843 -10.18834222 647.00541702 -5 644.375 C6.28417847 636.03593303 12.24593804 618.88500985 18.1875 606.625 C19.90055585 603.09156278 21.62472256 599.56386228 23.35546875 596.0390625 C23.92288033 594.85444931 23.92288033 594.85444931 24.50175476 593.64590454 C30.94655546 580.52672227 30.94655546 580.52672227 36 578 C39.79060983 577.56924888 41.85968503 577.93763779 45.375 579.5 C48 582 48 582 48.32421875 585.71484375 C48.17106982 589.89996907 47.08892399 593.19262172 45.4375 597.0625 C45.14593018 597.74715332 44.85436035 598.43180664 44.55395508 599.13720703 C39.78685699 610.08130857 34.46644213 620.7979489 29.23046875 631.5234375 C28.65707764 632.69825684 28.08368652 633.87307617 27.49291992 635.08349609 C26 638 26 638 24 641 C24 642.32 24 643.64 24 645 C25.91304785 644.90495449 25.91304785 644.90495449 28 644 C29.69555261 641.65745479 29.69555261 641.65745479 31.1015625 638.6640625 C31.6694751 637.54563965 32.2373877 636.4272168 32.82250977 635.27490234 C33.42347331 634.05833415 34.02430059 632.84169864 34.625 631.625 C35.24713398 630.39069043 35.87076032 629.15713196 36.49584961 627.92431641 C37.74903558 625.45033503 38.99618858 622.97346429 40.23876953 620.49414062 C42.62569972 615.75866171 45.08391896 611.06298182 47.5625 606.375 C47.94293457 605.65006348 48.32336914 604.92512695 48.71533203 604.17822266 C57.64915039 587.20198689 57.64915039 587.20198689 61 585 C65.9698922 584.2900154 67.84919686 584.20882284 72 587.0625 C74.58533502 590.85971081 74.49832218 592.438087 74 597 C72.65970604 600.45174147 70.91786204 603.6395882 69.125 606.875 C68.37452393 608.26537476 68.37452393 608.26537476 67.60888672 609.68383789 C62.42538158 619.21530052 56.89669095 628.53198514 51.29882812 637.82373047 C50.08705674 639.83802322 48.8779168 641.85390131 47.67138672 643.87133789 C46.49150357 645.8441705 45.30580218 647.8135373 44.11376953 649.77905273 C43.57864746 650.67438721 43.04352539 651.56972168 42.4921875 652.4921875 C41.77071533 653.68884033 41.77071533 653.68884033 41.03466797 654.90966797 C39.77819541 657.05937912 39.77819541 657.05937912 40 660 C40.99 660 41.98 660 43 660 C44.7614719 657.74435025 44.7614719 657.74435025 46.40625 654.76171875 C47.06286621 653.63950928 47.71948242 652.5172998 48.39599609 651.36108398 C49.09751555 650.13666186 49.79884652 648.91213173 50.5 647.6875 C51.21723904 646.45391328 51.93550563 645.22092346 52.65478516 643.98852539 C54.78373411 640.33361679 56.89320105 636.66770668 59 633 C60.65071829 630.13395723 62.3019544 627.26822044 63.95507812 624.40356445 C64.88262886 622.79263083 65.80599669 621.17927952 66.72460938 619.56323242 C69.78392568 614.21607432 69.78392568 614.21607432 72 612 C75.74868276 611.58347969 78.11733001 611.5020836 81.4375 613.375 C83.8812597 617.4805163 83.67864889 621.33434016 83 626 C81.51661336 629.73289843 79.47735722 633.0008024 77.3125 636.375 C76.73322754 637.31529053 76.15395508 638.25558105 75.55712891 639.22436523 C73.73175432 642.16765257 71.87221408 645.08631513 70 648 C69.39172363 648.95052246 68.78344727 649.90104492 68.15673828 650.88037109 C65.35779973 655.24157818 62.53535831 659.58589334 59.6796875 663.91015625 C59.21014648 664.62703613 58.74060547 665.34391602 58.25683594 666.08251953 C57.22160992 667.66190281 56.17830172 669.23598549 55.1328125 670.80859375 C53.69386166 673.18107172 53.69386166 673.18107172 54 677 C57.51793123 675.82735626 57.83252658 675.1257724 59.70703125 672.0625 C60.4640332 670.84240234 60.4640332 670.84240234 61.23632812 669.59765625 C61.75646484 668.74042969 62.27660156 667.88320313 62.8125 667 C63.83868157 665.33261752 64.86602319 663.66594842 65.89453125 662 C66.4045166 661.17371094 66.91450195 660.34742188 67.43994141 659.49609375 C74.82476876 647.68036999 74.82476876 647.68036999 78 645 C81.54376481 644.47220524 83.33802098 644.60960212 86.4375 646.4375 C88.46829534 649.76800435 88.35607844 651.68051634 87.72265625 655.46875 C86.30507794 660.43410538 83.68012749 664.62027947 81 669 C80.25500237 670.2550861 79.51022268 671.51030158 78.765625 672.765625 C70.32083534 686.80885781 60.2850596 699.15660911 49 711 C48.27425781 711.77859375 47.54851562 712.5571875 46.80078125 713.359375 C40.44764931 719.98260313 33.31948665 725.50097566 26 731 C25.44715332 731.41894531 24.89430664 731.83789062 24.32470703 732.26953125 C-1.1891608 751.49074109 -31.43943494 767.75821694 -63 774 C-63.98742187 774.20367188 -64.97484375 774.40734375 -65.9921875 774.6171875 C-100.17488772 780.60120936 -135.23342543 773.03491725 -166 758 C-167.19496094 757.45085938 -168.38992188 756.90171875 -169.62109375 756.3359375 C-189.36746328 747.10046418 -207.7609097 733.82166028 -223.75 719.0625 C-225.72789558 717.24942906 -227.75196817 715.52960986 -229.8125 713.8125 C-240.4876151 704.47177429 -249.53076864 693.32635992 -258 682 C-258.41846191 681.44376953 -258.83692383 680.88753906 -259.26806641 680.31445312 C-274.44672996 660.01306465 -286.6547068 637.46754811 -296.94384766 614.33764648 C-297.95452055 612.01689362 -297.95452055 612.01689362 -299.13818359 609.94165039 C-300 608 -300 608 -300 604 C-300.66 604 -301.32 604 -302 604 C-302.18175781 603.3709375 -302.36351562 602.741875 -302.55078125 602.09375 C-303.73083299 598.07552254 -304.91614537 594.09119568 -306.4375 590.1875 C-308.20928083 585.623541 -309.55832959 580.94101969 -310.9375 576.24609375 C-311.95337843 572.94966348 -311.95337843 572.94966348 -313.47265625 569.71875 C-315.407146 565.31726972 -316.38740534 560.7393382 -317.4375 556.0625 C-317.86895924 554.19251607 -318.30125966 552.32272604 -318.734375 550.453125 C-318.94642578 549.53208984 -319.15847656 548.61105469 -319.37695312 547.66210938 C-320.26533129 543.86631174 -321.22447362 540.0898919 -322.1875 536.3125 C-324.64029891 526.53368848 -326.32092695 517.01117207 -327.30322266 506.97900391 C-327.35360748 503.17348735 -327.35360748 503.17348735 -329 500 C-331.48708485 482.77228815 -331.22807187 464.87560323 -331.29855347 447.51190186 C-331.30769422 445.3330424 -331.32162021 443.15419659 -331.34085083 440.97540283 C-331.49497921 421.19616668 -330.01848264 401.40919558 -326 382 C-325.67 381.67 -325.34 381.34 -325 381 C-324.50399126 378.54386035 -324.05206625 376.09320814 -323.625 373.625 C-322.20492424 365.76998734 -320.72325106 358.00539436 -317.5546875 350.640625 C-315.5397579 345.92224713 -314.03259077 341.09211321 -312.4765625 336.20703125 C-304.94479299 313.9773159 -292.97368279 292.77359524 -279 274 C-278.54061035 273.37383789 -278.0812207 272.74767578 -277.60791016 272.10253906 C-246.25689102 229.62253721 -198.13569473 195.83124123 -147 182 C-145.68 182 -144.36 182 -143 182 C-143.23726807 181.49388184 -143.47453613 180.98776367 -143.71899414 180.46630859 C-160.32841392 144.17688791 -166.88274805 104.56068238 -155 66 C-154.73703125 65.08476562 -154.4740625 64.16953125 -154.203125 63.2265625 C-146.19226665 37.01559613 -128.30430019 13.02582084 -103.98681641 -0.08544922 C-70.00749254 -17.6571897 -33.98312559 -17.14050566 0 0 Z " fill="#EC2269" transform="translate(613,154)"/>
<path d="M0 0 C1.32 1.32 2.64 2.64 4 4 C-2.24604975 15.75165995 -8.67574506 27.38544139 -15.5 38.8125 C-16.08668457 39.81418213 -16.67336914 40.81586426 -17.27783203 41.84790039 C-18.11483643 43.23223267 -18.11483643 43.23223267 -18.96875 44.64453125 C-19.45794922 45.46284424 -19.94714844 46.28115723 -20.45117188 47.12426758 C-22.23351797 49.28280558 -23.26735755 49.65620882 -26 50 C-27.0118207 47.38732098 -27.1336663 46.31959565 -26.03466797 43.69189453 C-25.27114014 42.42514893 -25.27114014 42.42514893 -24.4921875 41.1328125 C-23.63874756 39.69518555 -23.63874756 39.69518555 -22.76806641 38.22851562 C-22.14335449 37.20435547 -21.51864258 36.18019531 -20.875 35.125 C-19.93213135 33.5462207 -19.93213135 33.5462207 -18.97021484 31.93554688 C-17.65357081 29.73182092 -16.33201467 27.53102322 -15.00585938 25.33300781 C-12.43148204 21.05533018 -9.89691688 16.75481432 -7.36376953 12.45263672 C-4.91673415 8.29728066 -2.45867628 4.1484754 0 0 Z " fill="#FDE8F1" transform="translate(679,765)"/>
<path d="M0 0 C-2.68859539 5.57634599 -5.60498408 10.82517271 -9 16 C-9.63808594 17.01900391 -9.63808594 17.01900391 -10.2890625 18.05859375 C-11.5625 20 -11.5625 20 -14 23 C-15.32 23 -16.64 23 -18 23 C-17.59846495 17.00565529 -14.85749833 13.04868018 -11.625 8.1875 C-10.8825 7.02444336 -10.8825 7.02444336 -10.125 5.83789062 C-5.17558019 -1.7251934 -5.17558019 -1.7251934 0 0 Z " fill="#FDE7F0" transform="translate(684,808)"/>
<path d="M0 0 C0.99 1.32 1.98 2.64 3 4 C2.43457996 5.32031595 1.84693528 6.6311301 1.25 7.9375 C0.76273438 9.03384766 0.76273438 9.03384766 0.265625 10.15234375 C-1 12 -1 12 -3.140625 12.75390625 C-4.06101562 12.87572266 -4.06101562 12.87572266 -5 13 C-5.93007204 10.44230189 -6.28739184 8.70731153 -5.24609375 6.14453125 C-2.51555794 1.25777897 -2.51555794 1.25777897 0 0 Z " fill="#FDF5F8" transform="translate(642,787)"/>
<path d="M0 0 C1.32 1.32 2.64 2.64 4 4 C2.68 6.64 1.36 9.28 0 12 C-1.98 12 -3.96 12 -6 12 C-4.43358249 7.69235185 -2.31663844 3.93828536 0 0 Z " fill="#FDE1ED" transform="translate(679,765)"/>
<path d="M0 0 C1.24072266 0.00322266 2.48144531 0.00644531 3.75976562 0.00976562 C5.03658203 0.01814453 6.31339844 0.02652344 7.62890625 0.03515625 C9.58473633 0.04192383 9.58473633 0.04192383 11.58007812 0.04882812 C14.78390177 0.06056374 17.98762988 0.07698262 21.19140625 0.09765625 C21.19140625 0.42765625 21.19140625 0.75765625 21.19140625 1.09765625 C20.40902588 1.1227124 19.62664551 1.14776855 18.82055664 1.17358398 C15.29815676 1.28915413 11.77605065 1.41205574 8.25390625 1.53515625 C7.02220703 1.57447266 5.79050781 1.61378906 4.52148438 1.65429688 C2.76674805 1.71713867 2.76674805 1.71713867 0.9765625 1.78125 C-0.64946899 1.83623657 -0.64946899 1.83623657 -2.30834961 1.89233398 C-4.74785675 1.8212989 -4.74785675 1.8212989 -5.80859375 3.09765625 C-7.66146877 3.16992127 -9.51693253 3.18146845 -11.37109375 3.16015625 C-12.38300781 3.15113281 -13.39492188 3.14210938 -14.4375 3.1328125 C-15.21996094 3.12121094 -16.00242187 3.10960937 -16.80859375 3.09765625 C-11.69939751 -0.30847458 -5.99712192 -0.02763651 0 0 Z " fill="#FBC1D8" transform="translate(500.80859375,509.90234375)"/>
<path d="M0 0 C-1.61010527 4.07376031 -4.53822271 6.76507069 -7.625 9.75 C-8.140625 10.25660156 -8.65625 10.76320313 -9.1875 11.28515625 C-10.45383339 12.52803902 -11.7263144 13.76465276 -13 15 C-13.66 14.34 -14.32 13.68 -15 13 C-12.88094537 10.82722286 -10.75527122 8.66173092 -8.625 6.5 C-8.02171875 5.87996094 -7.4184375 5.25992187 -6.796875 4.62109375 C-6.21679688 4.03457031 -5.63671875 3.44804687 -5.0390625 2.84375 C-4.50490723 2.29912109 -3.97075195 1.75449219 -3.42041016 1.19335938 C-2 0 -2 0 0 0 Z " fill="#EB2E73" transform="translate(368,392)"/>
<path d="M0 0 C0 0.99 0 1.98 0 3 C-1.670625 3.433125 -1.670625 3.433125 -3.375 3.875 C-7.00291092 4.69241329 -7.00291092 4.69241329 -9 7 C-9.99 7 -10.98 7 -12 7 C-9.52030127 1.00739475 -6.36870588 -0.43422995 0 0 Z " fill="#EE3779" transform="translate(568,751)"/>
<path d="M0 0 C0.99 0.33 1.98 0.66 3 1 C-0.3 4.3 -3.6 7.6 -7 11 C-7.66 10.34 -8.32 9.68 -9 9 C-6.03 6.03 -3.06 3.06 0 0 Z " fill="#EC3273" transform="translate(546,1078)"/>
<path d="M0 0 C0.33 0 0.66 0 1 0 C0.51679152 6.2054142 -0.33318124 11.99945246 -2 18 C-2.66 18 -3.32 18 -4 18 C-3.48914188 11.56318772 -2.27057103 6.04057576 0 0 Z " fill="#EA2E72" transform="translate(459,217)"/>
<path d="M0 0 C-3.09802308 4.04089967 -6.22139305 4.83997786 -10.9765625 5.8984375 C-11.97816406 5.94871094 -11.97816406 5.94871094 -13 6 C-13.66 5.34 -14.32 4.68 -15 4 C-12.87875034 3.13656176 -10.75286928 2.28449352 -8.625 1.4375 C-6.84996094 0.72400391 -6.84996094 0.72400391 -5.0390625 -0.00390625 C-2 -1 -2 -1 0 0 Z " fill="#EF407C" transform="translate(461,339)"/>
<path d="M0 0 C0 0.99 0 1.98 0 3 C-1.86328125 4.640625 -1.86328125 4.640625 -4.3125 6.25 C-5.11300781 6.79140625 -5.91351563 7.3328125 -6.73828125 7.890625 C-9 9 -9 9 -12 8 C-8.04 5.36 -4.08 2.72 0 0 Z " fill="#EE2C71" transform="translate(395,370)"/>
<path d="M0 0 C0.33 0 0.66 0 1 0 C1.07654536 4.51617599 1.10228696 8.59085217 0 13 C-0.66 13 -1.32 13 -2 13 C-2.19294408 8.17639811 -1.75747614 4.50353262 0 0 Z " fill="#EC3874" transform="translate(382,617)"/>
<path d="M0 0 C1.0169313 2.65498232 1.13022151 3.69155375 0.00390625 6.359375 C-0.47175781 7.14828125 -0.94742187 7.9371875 -1.4375 8.75 C-1.91058594 9.54921875 -2.38367188 10.3484375 -2.87109375 11.171875 C-3.24363281 11.77515625 -3.61617188 12.3784375 -4 13 C-4.66 13 -5.32 13 -6 13 C-4.58707905 8.1725201 -2.57025846 4.2837641 0 0 Z " fill="#EA397B" transform="translate(318,453)"/>
<path d="M0 0 C0.99 0.33 1.98 0.66 3 1 C0.69 3.64 -1.62 6.28 -4 9 C-4.66 8.67 -5.32 8.34 -6 8 C-4.55746343 4.63408134 -2.66735273 2.48952921 0 0 Z " fill="#ED3376" transform="translate(762,832)"/>
<path d="M0 0 C1.32 0 2.64 0 4 0 C6.4294516 3.6441774 6.16179575 5.71241272 6 10 C5.01 9.67 4.02 9.34 3 9 C1.875 5.5625 1.875 5.5625 1 2 C0.67 1.34 0.34 0.68 0 0 Z " fill="#EE4783" transform="translate(681,741)"/>
<path d="M0 0 C2.46751239 3.70126859 2.30721156 5.62223532 2 10 C1 12.4375 1 12.4375 0 14 C-0.91297308 9.02936879 -0.91297308 4.97063121 0 0 Z " fill="#F13E7A" transform="translate(1002,596)"/>
<path d="M0 0 C0.66 0.33 1.32 0.66 2 1 C1.67 2.65 1.34 4.3 1 6 C0.01 6 -0.98 6 -2 6 C-2.33 4.68 -2.66 3.36 -3 2 C-2.01 1.34 -1.02 0.68 0 0 Z " fill="#FDF5F8" transform="translate(641,792)"/>
<path d="M0 0 C0.33 0 0.66 0 1 0 C2.43680971 6.13909603 1.32637691 10.20377279 -1 16 C-2.26823485 12.34606463 -1.75715321 9.50929974 -1.0625 5.75 C-0.86785156 4.67234375 -0.67320312 3.5946875 -0.47265625 2.484375 C-0.31667969 1.66453125 -0.16070312 0.8446875 0 0 Z " fill="#F06C9F" transform="translate(287,536)"/>
<path d="M0 0 C5.44693314 -0.09688221 10.63904667 -0.12862175 16 1 C16 1.33 16 1.66 16 2 C9.84765625 2.87890625 9.84765625 2.87890625 8 3 C7.67 2.67 7.34 2.34 7 2 C4.67182036 1.63239269 2.3381615 1.29758419 0 1 C0 0.67 0 0.34 0 0 Z " fill="#EE4D89" transform="translate(738,297)"/>
<path d="M0 0 C1.98 0.495 1.98 0.495 4 1 C3.67 2.32 3.34 3.64 3 5 C1.68 4.67 0.36 4.34 -1 4 C-0.67 2.68 -0.34 1.36 0 0 Z " fill="#FBDCE9" transform="translate(653,810)"/>
<path d="M0 0 C0 0.66 0 1.32 0 2 C-3.41831915 4.5393228 -5.75776898 5.3636198 -10 5 C-3.63636364 0 -3.63636364 0 0 0 Z " fill="#F03575" transform="translate(424,354)"/>
<path d="M0 0 C3 3.625 3 3.625 3 7 C1.68 6.67 0.36 6.34 -1 6 C-0.67 4.02 -0.34 2.04 0 0 Z " fill="#FBDAE9" transform="translate(637,793)"/>
<path d="M0 0 C0.66 0.99 1.32 1.98 2 3 C0.35 4.65 -1.3 6.3 -3 8 C-3.33 7.34 -3.66 6.68 -4 6 C-2.68 4.02 -1.36 2.04 0 0 Z " fill="#ED3075" transform="translate(336,425)"/>
<path d="M0 0 C0.66 0.33 1.32 0.66 2 1 C0.35 2.98 -1.3 4.96 -3 7 C-3.66 6.34 -4.32 5.68 -5 5 C-3.35 3.35 -1.7 1.7 0 0 Z " fill="#EE2C71" transform="translate(494,164)"/>
<path d="M0 0 C0.66 0.33 1.32 0.66 2 1 C0.3125 3.0625 0.3125 3.0625 -2 5 C-4.75 4.75 -4.75 4.75 -7 4 C-4.61426621 2.10786631 -2.92824652 0.97608217 0 0 Z " fill="#F14581" transform="translate(629,933)"/>
<path d="M0 0 C0.75 1.75 0.75 1.75 1 4 C-0.9375 6.25 -0.9375 6.25 -3 8 C-3.33 7.34 -3.66 6.68 -4 6 C-2.68 4.02 -1.36 2.04 0 0 Z " fill="#ED347B" transform="translate(816,763)"/>
<path d="M0 0 C2.64 0 5.28 0 8 0 C7.67 0.99 7.34 1.98 7 3 C4.625 3.1875 4.625 3.1875 2 3 C1.34 2.01 0.68 1.02 0 0 Z " fill="#EE3778" transform="translate(542,142)"/>
</svg>
