<?xml version="1.0" encoding="UTF-8"?>
<svg version="1.1" xmlns="http://www.w3.org/2000/svg" width="1024" height="1024">
<path d="M0 0 C0.93207275 0.00563965 1.86414551 0.0112793 2.82446289 0.01708984 C9.5436725 0.1357436 15.40461849 0.81071913 21.6875 3.3125 C22.77933594 3.7146875 23.87117187 4.116875 24.99609375 4.53125 C51.11736061 14.83098282 69.08240016 35.96158487 80.4453125 61.10546875 C84.23152833 69.92186018 86.60103664 78.97250815 88.6875 88.3125 C89.5640625 88.26609375 90.440625 88.2196875 91.34375 88.171875 C114.74056066 87.50611209 138.14372536 93.42963943 159.58056641 102.56054688 C161.78555849 103.48056449 161.78555849 103.48056449 164.6875 103.3125 C165.0175 103.9725 165.3475 104.6325 165.6875 105.3125 C168.06764162 106.53400665 170.45159638 107.68347442 172.875 108.8125 C181.16951981 112.82171931 188.41268342 117.69238295 195.6875 123.3125 C197.08548828 124.37404297 197.08548828 124.37404297 198.51171875 125.45703125 C228.21501965 148.82940962 247.07206865 180.8995302 252.6875 218.3125 C258.66721667 276.08560449 230.83179052 331.22368516 195.32763672 374.98876953 C189.46610797 382.14784159 183.35738663 388.88762961 176.6875 395.3125 C175.8625 396.1375 175.0375 396.9625 174.1875 397.8125 C173.3625 398.6375 172.5375 399.4625 171.6875 400.3125 C171.05585937 400.96734375 170.42421875 401.6221875 169.7734375 402.296875 C164.0903405 408.12054331 158.09497097 413.30214676 151.6875 418.3125 C151.11676758 418.76496094 150.54603516 419.21742188 149.95800781 419.68359375 C134.2547374 432.08489238 117.25829826 441.81051499 99.35180664 450.68530273 C92.84818814 453.96261328 87.27611795 457.6538854 81.6875 462.3125 C80.76324219 463.01503906 79.83898437 463.71757813 78.88671875 464.44140625 C74.52905433 468.14890404 71.2192456 472.83745828 67.6875 477.3125 C66.86636719 478.32957031 66.04523438 479.34664062 65.19921875 480.39453125 C56.08906385 491.79864837 49.26969869 504.09677881 42.625 517.0625 C32.79163921 536.24477367 32.79163921 536.24477367 25.6875 542.3125 C22.54264075 542.70560741 20.55468329 542.78805213 17.75 541.25 C16.0303327 538.11413611 16.95043143 535.73811392 17.6875 532.3125 C18.97206282 529.8601528 20.23040163 527.66095886 21.75 525.375 C22.12705078 524.78654297 22.50410156 524.19808594 22.89257812 523.59179688 C23.81328877 522.15828537 24.74886994 520.7343428 25.6875 519.3125 C22.21858598 522.21670708 18.82368301 525.16606189 15.5390625 528.27734375 C14.97791748 528.80618164 14.41677246 529.33501953 13.83862305 529.87988281 C12.71476207 530.94241899 11.5962179 532.01061333 10.48364258 533.08496094 C7.1385728 536.23910092 4.02949125 538.59871545 -0.3125 540.3125 C-3.5625 539.8125 -3.5625 539.8125 -6.3125 538.3125 C-7.6875 535.6875 -7.6875 535.6875 -8.3125 533.3125 C-3.11755635 527.17965384 2.41381259 521.46386031 8.125 515.8125 C8.95193359 514.99007812 9.77886719 514.16765625 10.63085938 513.3203125 C12.64744959 511.31537887 14.66635236 509.31283747 16.6875 507.3125 C15.73875 507.9725 14.79 508.6325 13.8125 509.3125 C10.6875 511.3125 10.6875 511.3125 8.6875 511.3125 C8.6875 511.9725 8.6875 512.6325 8.6875 513.3125 C6.56930177 514.81904212 4.46033405 516.20339948 2.25 517.5625 C0.96047058 518.3703489 -0.3285919 519.17894365 -1.6171875 519.98828125 C-2.24979492 520.38354004 -2.88240234 520.77879883 -3.53417969 521.18603516 C-6.52777864 523.08230995 -9.43824287 525.09890742 -12.34765625 527.12109375 C-15.52931514 529.05033025 -18.1846183 530.39306298 -21.9375 530.125 C-24.60782107 529.21146911 -25.81703832 528.72185493 -27.3125 526.3125 C-27.11942337 522.76954376 -26.82874929 520.88079912 -24.4140625 518.22265625 C-23.18816406 517.30806641 -23.18816406 517.30806641 -21.9375 516.375 C-21.03128906 515.694375 -20.12507812 515.01375 -19.19140625 514.3125 C-15.5780693 511.80228491 -11.86220937 509.487799 -8.125 507.16796875 C-1.3765189 502.7158458 4.7985928 497.77810814 9.6875 491.3125 C7.45772013 492.6448166 5.22854908 493.97812685 3 495.3125 C1.98691772 495.91892334 1.98691772 495.91892334 0.95336914 496.53759766 C-4.53679046 499.83105092 -9.98216932 503.19082599 -15.41015625 506.5859375 C-23.40626562 511.34270781 -23.40626562 511.34270781 -28.0625 511.1875 C-31.3125 510.3125 -31.3125 510.3125 -33.3125 507.3125 C-33.07643173 502.82720295 -31.35923163 500.51571029 -28.3125 497.3125 C-25.00742626 495.07353023 -21.54204231 493.14069486 -18.0625 491.1875 C-10.13556315 486.63939707 -2.48715165 481.89309432 4.93847656 476.56396484 C9.50052435 473.3125 9.50052435 473.3125 11.6875 473.3125 C11.6875 472.6525 11.6875 471.9925 11.6875 471.3125 C12.3475 471.3125 13.0075 471.3125 13.6875 471.3125 C13.3575 469.9925 13.0275 468.6725 12.6875 467.3125 C11.86507812 467.33570313 11.04265625 467.35890625 10.1953125 467.3828125 C-4.66684177 467.62307827 -4.66684177 467.62307827 -10.3125 465.3125 C-12.96689805 462.53532142 -13.3125 461.71189467 -13.3125 457.75 C-12.3125 454.3125 -12.3125 454.3125 -10.09204102 452.67114258 C-7.26050643 451.28708549 -4.9395274 450.65204282 -1.83984375 450.13671875 C-0.78539062 449.95197998 0.2690625 449.76724121 1.35546875 449.5769043 C2.47566406 449.38652588 3.59585938 449.19614746 4.75 449 C39.59216384 442.64372469 71.08395114 428.50640095 96.8671875 403.859375 C98.6875 402.3125 98.6875 402.3125 100.6875 402.3125 C101.0175 401.3225 101.3475 400.3325 101.6875 399.3125 C103.078125 397.98046875 103.078125 397.98046875 104.9375 396.5 C114.6223697 388.27831205 122.96642498 378.35769659 130.6875 368.3125 C131.78384766 366.94351563 131.78384766 366.94351563 132.90234375 365.546875 C144.55491537 350.81590926 155.05626419 335.00344948 163.6875 318.3125 C164.03506348 317.64331543 164.38262695 316.97413086 164.74072266 316.28466797 C178.64689762 289.13207669 187.10274594 255.44731769 178.06201172 225.41943359 C174.158478 213.42194254 168.58433645 204.22459689 159.6875 195.3125 C159.04941406 194.6628125 158.41132812 194.013125 157.75390625 193.34375 C145.93429147 182.13846031 130.37779507 178.64844374 114.48046875 179.02734375 C90.6158939 180.82148789 69.48461548 191.53119494 53.875 209.59375 C47.0293458 218.10192022 41.70500533 226.71855112 37.1953125 236.609375 C35.6875 239.3125 35.6875 239.3125 32.6875 240.3125 C32.213125 239.52875 31.73875 238.745 31.25 237.9375 C20.85827016 222.53157884 5.22926414 211.78833941 -12.96484375 207.78515625 C-33.19395933 204.92900341 -52.737445 209.43354856 -69.1875 221.75 C-70.58025517 222.91662518 -71.95605982 224.10384319 -73.3125 225.3125 C-73.97507812 225.88226563 -74.63765625 226.45203125 -75.3203125 227.0390625 C-90.8338153 241.33581998 -98.53213127 262.59288556 -99.39501953 283.29199219 C-100.43415987 312.74083736 -93.07547678 341.79878769 -73.3125 364.3125 C-72.73242188 365.10140625 -72.15234375 365.8903125 -71.5546875 366.703125 C-60.30970292 379.78962274 -43.20831072 387.93932886 -26.3125 390.3125 C-19.00901595 390.56917196 -12.79306336 389.69366349 -6.3125 386.3125 C-5.3225 385.9825 -4.3325 385.6525 -3.3125 385.3125 C-3.3125 384.6525 -3.3125 383.9925 -3.3125 383.3125 C-2.6525 383.3125 -1.9925 383.3125 -1.3125 383.3125 C1.65047696 374.79394124 1.03953493 367.42546766 -0.875 358.6875 C-2.06726424 353.09346398 -2.80452543 348.85430873 -1.3125 343.3125 C0.1638575 341.13311512 1.20881675 340.53588552 3.5625 339.4375 C6.87275258 339.24277926 8.16823535 340.18081453 10.6875 342.3125 C11.89228635 345.01122143 12.80312896 347.51351123 13.6875 350.3125 C14.41138178 352.272793 15.14070242 354.23108477 15.875 356.1875 C17.6875 361.06156367 17.6875 361.06156367 17.6875 363.3125 C20.94389659 364.25521002 20.94389659 364.25521002 24.6875 364.3125 C28.5164488 361.07769842 31.05763222 357.46119606 33.625 353.1875 C33.96635986 352.62417969 34.30771973 352.06085938 34.65942383 351.48046875 C36.85711434 347.82022163 38.88877208 344.09042836 40.875 340.3125 C43.0776362 336.23464649 44.9474538 333.09355999 48.6875 330.3125 C51.375 329.8125 51.375 329.8125 53.6875 330.3125 C56.22353979 334.11655969 56.11777191 335.78091285 55.6875 340.3125 C54.64224461 343.40043484 53.26493063 346.27258732 51.8125 349.1875 C51.26529297 350.34378906 51.26529297 350.34378906 50.70703125 351.5234375 C47.9734502 357.1695249 47.9734502 357.1695249 45.6875 358.3125 C44.97043018 360.29498715 44.30459587 362.29665349 43.6875 364.3125 C43.3575 364.9725 43.0275 365.6325 42.6875 366.3125 C43.3475 366.3125 44.0075 366.3125 44.6875 366.3125 C44.955625 365.57 45.22375 364.8275 45.5 364.0625 C46.6875 361.3125 46.6875 361.3125 48.25 359.25 C49.80488704 357.43127107 49.80488704 357.43127107 50.125 355.3125 C50.6875 353.3125 50.6875 353.3125 52.5 351.5078125 C55.49597384 348.50113875 57.65768784 345.07662783 60.00390625 341.5546875 C62.08494052 338.78319407 63.74261478 337.47785491 67.1875 336.875 C69.6875 337.3125 69.6875 337.3125 71.6875 339.3125 C72.84106632 342.77319895 72.47947762 344.50884779 71.03515625 347.81640625 C68.60888888 352.31027538 65.7991256 356.55614609 62.984375 360.8125 C60.06845665 365.22264517 57.36539026 369.75483579 54.6875 374.3125 C55.38875 373.301875 56.09 372.29125 56.8125 371.25 C59.09096407 368.0537321 61.54957423 365.10048518 64.13671875 362.15234375 C66.3641843 359.50968311 68.37530784 356.72033746 70.390625 353.9140625 C71.6875 352.3125 71.6875 352.3125 73.6875 351.3125 C75.68710012 351.272508 77.68797242 351.26903201 79.6875 351.3125 C81.25709026 354.15271096 81.98292565 356.25129997 81.09375 359.4453125 C78.1437443 365.8299677 73.87386741 371.17769794 69.43481445 376.578125 C67.32477326 379.15097413 65.74998935 381.12503195 64.6875 384.3125 C65.80898438 383.15621094 65.80898438 383.15621094 66.953125 381.9765625 C67.94764651 380.96327644 68.94245323 379.95027025 69.9375 378.9375 C70.42863281 378.42960937 70.91976562 377.92171875 71.42578125 377.3984375 C76.24192401 372.5180795 76.24192401 372.5180795 79.6875 371.3125 C82.375 371.5625 82.375 371.5625 84.6875 372.3125 C86.17481668 375.28713337 86.1188052 376.98528843 85.6875 380.3125 C82.79030641 385.28050646 78.82880709 389.36381185 74.6875 393.3125 C74.08679688 393.94542969 73.48609375 394.57835937 72.8671875 395.23046875 C63.49136787 405.00415526 52.88911089 412.91740874 41.234375 419.75390625 C38.637307 421.2066679 38.637307 421.2066679 36.6875 423.3125 C10.79143167 436.7380266 -18.83243104 442.74490819 -47.1875 434.1875 C-84.17169772 422.33536935 -111.94883495 391.54525647 -129.56347656 357.92480469 C-135.93306574 345.43191067 -141.17124129 332.70781651 -145.3125 319.3125 C-145.54807617 318.55324219 -145.78365234 317.79398438 -146.02636719 317.01171875 C-159.7839945 271.5585592 -158.91428606 222.76726154 -136.56640625 180.3203125 C-127.66293218 164.09831747 -115.61371984 149.06222784 -101.3125 137.3125 C-100.33925781 136.50296875 -99.36601562 135.6934375 -98.36328125 134.859375 C-86.43550126 125.1759696 -67.20577087 111.3125 -51.3125 111.3125 C-51.65861328 110.49072266 -51.65861328 110.49072266 -52.01171875 109.65234375 C-62.03703378 85.28250683 -66.71571906 61.84574884 -56.875 36.62890625 C-49.0255655 19.40166178 -35.71715121 9.13463011 -18.3125 2.3125 C-12.11624653 0.41240148 -6.4640411 -0.04089317 0 0 Z M26.6875 516.3125 C27.6875 518.3125 27.6875 518.3125 27.6875 518.3125 Z " fill="#FE2B8E" transform="translate(475.3125,216.6875)"/>
<path d="M0 0 C0.33 0 0.66 0 1 0 C0.49335396 7.02168594 -1.083569 12.92896725 -3.5625 19.5 C-3.92182617 20.46413818 -4.28115234 21.42827637 -4.65136719 22.42163086 C-18.42261415 58.74705325 -40.98487812 93.01400505 -69 120 C-69.825 120.825 -70.65 121.65 -71.5 122.5 C-72.325 123.325 -73.15 124.15 -74 125 C-74.94746094 125.98226562 -74.94746094 125.98226562 -75.9140625 126.984375 C-81.5971595 132.80804331 -87.59252903 137.98964676 -94 143 C-94.57073242 143.45246094 -95.14146484 143.90492188 -95.72949219 144.37109375 C-111.4327626 156.77239238 -128.42920174 166.49801499 -146.33569336 175.37280273 C-152.83576552 178.6483262 -158.40582969 182.35441624 -164 187 C-165.299375 187.9590625 -165.299375 187.9590625 -166.625 188.9375 C-170.11575897 191.96894858 -173.02617974 195.46912407 -176 199 C-176.33 198.34 -176.66 197.68 -177 197 C-173.14266798 192.38058111 -169.24798426 188.132118 -164.578125 184.32421875 C-162.98795811 183.0544229 -162.98795811 183.0544229 -161.74609375 181.59375 C-159.08012285 179.16038059 -155.95450599 177.54711794 -152.8125 175.8125 C-152.10416016 175.41667725 -151.39582031 175.02085449 -150.66601562 174.61303711 C-145.84568402 171.94555254 -140.95343677 169.47111936 -136 167.0625 C-100.49814071 149.65485639 -68.05116127 120.97548238 -45 89 C-44.278125 88.00097656 -43.55625 87.00195312 -42.8125 85.97265625 C-23.72694118 58.9461417 -10.06114243 31.46422293 0 0 Z " fill="#FA1C65" transform="translate(721,492)"/>
<path d="M0 0 C6.68907455 0.97888896 12.23396282 2.46860806 18 6 C19.19723683 6.66609348 20.39804347 7.32579441 21.6015625 7.98046875 C29.83647518 12.48356949 37.59348875 17.19672746 45 23 C45.86625 23.66257812 46.7325 24.32515625 47.625 25.0078125 C71.81914657 44.06773611 92.51477315 71.29217374 99 102 C99.19504298 104.40119576 99.15728339 106.58832132 99 109 C96.78215689 106.78215689 96.51577608 105.78267031 95.7734375 102.80859375 C95.55083252 101.95483154 95.32822754 101.10106934 95.09887695 100.22143555 C94.85999756 99.30273682 94.62111816 98.38403809 94.375 97.4375 C83.47466855 57.83645067 54.86440522 29.88169244 20 10 C14.60338165 6.97681079 9.09230407 4.88354551 3.22265625 2.9296875 C1 2 1 2 0 0 Z " fill="#F91C65" transform="translate(626,317)"/>
<path d="M0 0 C0.99 0.495 0.99 0.495 2 1 C-6.20096513 13.90151831 -15.96191093 25.51200594 -26 37 C-26.69480469 37.79664063 -27.38960937 38.59328125 -28.10546875 39.4140625 C-29.23274583 40.70309016 -30.36267507 41.98980671 -31.49609375 43.2734375 C-32.50462153 44.43127979 -33.49680685 45.60354784 -34.47265625 46.7890625 C-37.69281145 50.68759707 -41.1454042 53.97943387 -45 57.25 C-46.91303088 58.92390202 -48.67378232 60.67095944 -50.4375 62.5 C-54.31527759 66.43029828 -58.5800289 69.70459481 -63 73 C-64.21623047 73.94166016 -64.21623047 73.94166016 -65.45703125 74.90234375 C-93.32264851 96 -93.32264851 96 -105 96 C-105 95.34 -105 94.68 -105 94 C-104.16359985 93.62415771 -104.16359985 93.62415771 -103.31030273 93.24072266 C-83.86966712 84.43402486 -67.48921996 74.02570424 -51.8125 59.46875 C-50 58 -50 58 -48 58 C-47.67 57.01 -47.34 56.02 -47 55 C-45.609375 53.66796875 -45.609375 53.66796875 -43.75 52.1875 C-34.07079475 43.97062072 -25.70113133 34.05297384 -18 24 C-17.19949219 22.97132813 -16.39898438 21.94265625 -15.57421875 20.8828125 C-10.24397961 14.01963437 -5.06595254 7.061202 0 0 Z " fill="#FD1E6C" transform="translate(624,561)"/>
<path d="M0 0 C0.94875 -0.00773438 1.8975 -0.01546875 2.875 -0.0234375 C3.77992188 -0.02085937 4.68484375 -0.01828125 5.6171875 -0.015625 C6.43558105 -0.01336914 7.25397461 -0.01111328 8.09716797 -0.00878906 C10.125 0.25 10.125 0.25 12.125 2.25 C10.16820312 2.32347656 10.16820312 2.32347656 8.171875 2.3984375 C-14.24008584 3.14316018 -14.24008584 3.14316018 -34.09375 12.94140625 C-35.875 14.25 -35.875 14.25 -37.875 14.25 C-37.875 14.91 -37.875 15.57 -37.875 16.25 C-39.02076596 17.29755745 -40.2189356 18.28809717 -41.4375 19.25 C-52.34140766 28.57139363 -57.36640384 41.40626566 -59.875 55.25 C-60.20487599 60.17672805 -60.16294589 65.06527358 -60.0625 70 C-60.04896484 71.28132813 -60.03542969 72.56265625 -60.02148438 73.8828125 C-59.98652705 77.00566695 -59.9374609 80.12759541 -59.875 83.25 C-64.39061356 78.73438644 -63.1844137 69.92595583 -63.18969727 63.84692383 C-62.90290794 45.9862278 -56.32050334 29.49371023 -43.625 16.8046875 C-31.51172682 5.55173202 -16.38696142 -0.1369384 0 0 Z " fill="#FA216C" transform="translate(475.875,216.75)"/>
<path d="M0 0 C0 0.33 0 0.66 0 1 C-0.70382812 0.97905273 -1.40765625 0.95810547 -2.1328125 0.93652344 C-25.96989967 0.32192491 -46.4643433 2.48379228 -65 19 C-65.66257812 19.56976563 -66.32515625 20.13953125 -67.0078125 20.7265625 C-80.37313586 33.04362521 -86.46624631 49.87811454 -91 67 C-91.33 67 -91.66 67 -92 67 C-92.69871275 50.78575423 -82.20610481 33.93952261 -72 22 C-53.80223844 2.32908631 -26.18699307 -7.20624871 0 0 Z " fill="#FC1D6B" transform="translate(467,423)"/>
<path d="M0 0 C-0.77694214 0.42913696 -0.77694214 0.42913696 -1.56958008 0.86694336 C-11.78035527 6.54286977 -21.30005176 12.1460759 -30 20 C-30.84691406 20.72832031 -31.69382812 21.45664062 -32.56640625 22.20703125 C-51.40827674 38.63253973 -65.18814462 59.31935603 -73 83 C-73.94160075 85.36734439 -74.94981207 87.67853194 -76 90 C-76.33 90 -76.66 90 -77 90 C-76.47657824 84.20358866 -75.32792436 79.4110124 -73.0625 74.0625 C-72.75675049 73.33450195 -72.45100098 72.60650391 -72.13598633 71.85644531 C-63.21506396 51.31075613 -49.32491829 32.23118288 -32 18 C-31.25234375 17.36449219 -30.5046875 16.72898437 -29.734375 16.07421875 C-23.22362448 10.66609533 -16.26921418 6.2967439 -9 2 C-8.12988281 1.40832031 -7.25976562 0.81664062 -6.36328125 0.20703125 C-3.58216678 -1.21340573 -2.86658238 -0.89054101 0 0 Z " fill="#FB2069" transform="translate(405,337)"/>
<path d="M0 0 C2.83401788 3.36539624 4.36267513 7.03277084 6 11.0625 C14.9697852 32.185134 28.13117042 50.543436 44 67 C44.79792969 67.86109375 45.59585938 68.7221875 46.41796875 69.609375 C55.80979887 79.47615901 66.85550398 86.9029673 79 93 C75.56186745 94.15651819 75.16204609 94.07867046 71.63671875 92.3671875 C70.3095458 91.55376983 68.99371847 90.72165794 67.6875 89.875 C66.98689453 89.42850098 66.28628906 88.98200195 65.56445312 88.52197266 C57.75247669 83.3986473 50.83781254 77.33859171 44 71 C43.23171875 70.30261719 42.4634375 69.60523438 41.671875 68.88671875 C35.37848398 62.91311386 30.2097471 55.91084723 25 49 C24.35933594 48.154375 23.71867187 47.30875 23.05859375 46.4375 C15.69651986 36.32532427 9.89115332 25.13332224 4.5 13.875 C4.16170166 13.17689209 3.82340332 12.47878418 3.47485352 11.75952148 C1.64176509 7.84055391 0.48783951 4.34990232 0 0 Z " fill="#FB1C68" transform="translate(336,550)"/>
<path d="M0 0 C2.3125 0.5 2.3125 0.5 4.3125 3.5 C5.04311449 9.73354068 3.14269455 13.94588982 0.4375 19.375 C0.07269531 20.14585937 -0.29210937 20.91671875 -0.66796875 21.7109375 C-3.4015498 27.3570249 -3.4015498 27.3570249 -5.6875 28.5 C-5.97625 29.44875 -6.265 30.3975 -6.5625 31.375 C-7.77387544 34.73993178 -8.68656682 35.69944009 -11.6875 37.5 C-10.00041786 31.37322801 -7.53534892 26.36724365 -4.18359375 20.984375 C-0.79665325 15.36010827 2.00255809 10.22806634 1.3125 3.5 C-2.44918057 3.87887338 -2.44918057 3.87887338 -5.20703125 6.29296875 C-5.63371094 7.08316406 -6.06039062 7.87335937 -6.5 8.6875 C-7.00273438 9.58597656 -7.50546875 10.48445312 -8.0234375 11.41015625 C-8.57257812 12.42980469 -9.12171875 13.44945312 -9.6875 14.5 C-20.90352289 34.98640916 -20.90352289 34.98640916 -27.8125 37.75 C-31.70870809 37.4111993 -33.03921965 36.36300579 -35.6875 33.5 C-38.60727981 28.09300036 -39.6572722 22.52380254 -40.6875 16.5 C-40.0275 16.5 -39.3675 16.5 -38.6875 16.5 C-38.04034867 18.5829243 -37.39482834 20.66635539 -36.75 22.75 C-36.21052734 24.49023438 -36.21052734 24.49023438 -35.66015625 26.265625 C-34.93683363 28.67089058 -34.26207589 31.05654044 -33.6875 33.5 C-30.43110341 34.44271002 -30.43110341 34.44271002 -26.6875 34.5 C-22.8585512 31.26519842 -20.31736778 27.64869606 -17.75 23.375 C-17.40864014 22.81167969 -17.06728027 22.24835937 -16.71557617 21.66796875 C-14.51788566 18.00772163 -12.48622792 14.27792836 -10.5 10.5 C-5.3678996 0.998679 -5.3678996 0.998679 0 0 Z " fill="#FB1E6C" transform="translate(526.6875,546.5)"/>
<path d="M0 0 C0.495 1.485 0.495 1.485 1 3 C-0.38813459 5.04245354 -1.79510333 6.86508216 -3.375 8.75 C-11.79343887 19.2811631 -17.92692917 30.77773392 -24.0625 42.75 C-33.89586079 61.93227367 -33.89586079 61.93227367 -41 68 C-44.14485925 68.39310741 -46.13281671 68.47555213 -48.9375 66.9375 C-50.65329991 63.8086884 -49.72538219 61.42015952 -49 58 C-47.78288619 55.53575387 -46.59337417 53.35453208 -45.125 51.0625 C-44.77308594 50.47404297 -44.42117188 49.88558594 -44.05859375 49.27929688 C-43.0078125 47.59765625 -43.0078125 47.59765625 -41 45 C-40.01 45 -39.02 45 -38 45 C-40.17428797 49.59138982 -42.95147062 53.81999298 -45.63671875 58.125 C-47.23580672 60.83405231 -47.23580672 60.83405231 -46.70703125 63.375 C-46.35705078 64.179375 -46.35705078 64.179375 -46 65 C-42.16680711 64.79250523 -40.49376516 64.54440774 -37.8671875 61.6484375 C-37.20976562 60.56820312 -36.55234375 59.48796875 -35.875 58.375 C-35.50592529 57.77469971 -35.13685059 57.17439941 -34.7565918 56.5559082 C-30.6098474 49.65147246 -26.96117254 42.44999405 -23.33740234 35.26123047 C-20.26237971 29.20171886 -16.90363741 23.55961264 -13 18 C-12.47817139 17.24871826 -11.95634277 16.49743652 -11.41870117 15.72338867 C-9.85081578 13.47563015 -8.2712611 11.23659414 -6.6875 9 C-6.15060547 8.23816406 -5.61371094 7.47632813 -5.06054688 6.69140625 C-1.12963051 1.12963051 -1.12963051 1.12963051 0 0 Z " fill="#F91D65" transform="translate(542,691)"/>
<path d="M0 0 C5.12007331 -0.37193732 8.96721944 0.86012012 13.5625 2.9375 C14.26213867 3.25106445 14.96177734 3.56462891 15.68261719 3.88769531 C41.79181184 16.0229548 59.0927949 38.99059602 69.3203125 65.328125 C70.01661457 68.06531245 69.98119717 69.39175435 69 72 C68.8040625 71.46375 68.608125 70.9275 68.40625 70.375 C58.21575395 43.66887241 42.34438009 19.91089806 16 7 C10.74550133 4.78577071 5.38621227 2.86603547 0 1 C0 0.67 0 0.34 0 0 Z " fill="#F91F68" transform="translate(489,219)"/>
<path d="M0 0 C0.99 0.33 1.98 0.66 3 1 C-5.38433316 7.93997324 -13.77144066 14.39714034 -23.07421875 20.0625 C-25.80230149 21.86908083 -27.95324204 23.45026745 -30 26 C-30 27.32 -30 28.64 -30 30 C-25.45122628 31.46943909 -22.15040696 30.02898085 -18 28 C-15.42814609 26.41134849 -13.02639974 24.6462486 -10.625 22.8125 C-4.23956885 18 -4.23956885 18 -2 18 C-2 18.66 -2 19.32 -2 20 C-3.92706606 21.53742418 -5.83710302 22.935619 -7.875 24.3125 C-8.46345703 24.71259277 -9.05191406 25.11268555 -9.65820312 25.52490234 C-22.72537233 34.26348326 -22.72537233 34.26348326 -27.6640625 33.69140625 C-30.36818029 32.89102356 -31.50506907 32.40849984 -33 30 C-32.80692337 26.45704376 -32.51624929 24.56829912 -30.1015625 21.91015625 C-29.28429687 21.30042969 -28.46703125 20.69070313 -27.625 20.0625 C-26.26568359 19.0415625 -26.26568359 19.0415625 -24.87890625 18 C-21.26922788 15.49232656 -17.56273419 13.17573035 -13.81640625 10.87890625 C-9.69394556 8.12869323 -6.02192504 4.90309654 -2.3125 1.625 C-1.549375 1.08875 -0.78625 0.5525 0 0 Z " fill="#F8206C" transform="translate(481,713)"/>
<path d="M0 0 C1.56959026 2.84021096 2.29542565 4.93879997 1.40625 8.1328125 C-1.20610928 13.78670438 -4.83148943 18.66038645 -8.625 23.5625 C-9.10412842 24.18253906 -9.58325684 24.80257812 -10.0769043 25.44140625 C-13.62215484 29.87405161 -13.62215484 29.87405161 -17 31 C-15.79618552 28.50638429 -14.54571278 26.31856917 -13 24 C-12.34 24 -11.68 24 -11 24 C-10.74476563 23.26523437 -10.48953125 22.53046875 -10.2265625 21.7734375 C-8.94239702 18.86975121 -7.45959126 17.00126246 -5.375 14.625 C-2.99096574 11.67827443 -1.52344243 9.78857644 -1.5625 5.9375 C-1.706875 4.968125 -1.85125 3.99875 -2 3 C-5.51891149 3.2526714 -6.74955864 3.72707737 -9.17578125 6.37109375 C-10.23345703 7.88896484 -10.23345703 7.88896484 -11.3125 9.4375 C-12.09125829 10.525592 -12.87123011 11.61281637 -13.65234375 12.69921875 C-14.23604736 13.52365479 -14.23604736 13.52365479 -14.83154297 14.36474609 C-16.62276051 16.87155242 -18.4850279 19.3170525 -20.375 21.75 C-21.00148438 22.56984375 -21.62796875 23.3896875 -22.2734375 24.234375 C-23.12808594 25.10835937 -23.12808594 25.10835937 -24 26 C-24.99 26 -25.98 26 -27 26 C-26.4946875 25.37351562 -25.989375 24.74703125 -25.46875 24.1015625 C-24.8190625 23.28429687 -24.169375 22.46703125 -23.5 21.625 C-22.8503125 20.81289063 -22.200625 20.00078125 -21.53125 19.1640625 C-19.80746385 17.16973157 -19.80746385 17.16973157 -20 15 C-18.86778445 13.86778445 -17.73034984 12.74041142 -16.5703125 11.63671875 C-13.97139623 8.92789806 -11.79421328 5.89513264 -9.55078125 2.890625 C-6.72850601 -0.55013373 -4.24524812 -0.092288 0 0 Z " fill="#FB2071" transform="translate(555,568)"/>
<path d="M0 0 C2.00720923 0.28674418 4.0085944 0.61866701 6 1 C4.59896549 4.28099409 3.00653684 6.07414935 0.25 8.3125 C-3.10730282 11.1406627 -5.89632756 14.11308631 -8.6875 17.48828125 C-10.27982888 19.3223029 -11.92318154 20.73907451 -14 22 C-14.66 22 -15.32 22 -16 22 C-16.226875 22.5775 -16.45375 23.155 -16.6875 23.75 C-18 26 -18 26 -20.625 27.9375 C-23.28909005 29.78155013 -23.28909005 29.78155013 -23.3125 32.75 C-23.209375 33.4925 -23.10625 34.235 -23 35 C-21.22859656 35.77299187 -21.22859656 35.77299187 -19 36 C-16.69854927 34.88513086 -16.69854927 34.88513086 -14.5 33.1875 C-11.73551117 31.19460651 -9.09308975 29.44109863 -6 28 C-9.78856609 32.9404012 -13.17204218 36.60637447 -19 39 C-22.3125 38.5625 -22.3125 38.5625 -25 37 C-26.375 34.375 -26.375 34.375 -27 32 C-21.37305316 25.31043834 -15.26765606 19.14929174 -9.0625 13 C-8.0824469 12.02497614 -7.1026276 11.0497172 -6.12304688 10.07421875 C-3.75097687 7.71383382 -1.3765914 5.35583095 1 3 C0.34 2.34 -0.32 1.68 -1 1 C-0.67 0.67 -0.34 0.34 0 0 Z " fill="#FC2478" transform="translate(494,718)"/>
<path d="M0 0 C0 0.66 0 1.32 0 2 C-2.15390006 3.71475539 -4.30570692 5.30644878 -6.5625 6.875 C-7.17158203 7.30941406 -7.78066406 7.74382813 -8.40820312 8.19140625 C-11.4759029 10.35340419 -14.56378337 12.3623495 -17.83984375 14.1953125 C-20.9804769 15.80489404 -20.9804769 15.80489404 -23 18 C-36.55350075 25.02666067 -53.54701748 32.22642718 -69 31 C-66.24587786 29.5068901 -63.78955069 28.62222684 -60.71875 28.02734375 C-39.21839772 23.57195943 -20.60785386 14.75716972 -3.453125 0.99609375 C-2 0 -2 0 0 0 Z " fill="#FC1D6C" transform="translate(535,622)"/>
<path d="M0 0 C2 2 2 2 3 5 C1.38036712 11.82559571 -2.47289644 17.67656256 -7 23 C-7.66 23 -8.32 23 -9 23 C-7.51512062 19.8716619 -5.75028307 17.03304766 -3.875 14.125 C-1.51382263 10.25083519 -0.26652867 7.64531843 -1 3 C-4.08231835 3.30980713 -5.58863849 3.55905743 -7.73828125 5.86328125 C-8.25777344 6.67152344 -8.77726563 7.47976563 -9.3125 8.3125 C-10.20388672 9.66601562 -10.20388672 9.66601562 -11.11328125 11.046875 C-11.73589844 12.02140625 -12.35851562 12.9959375 -13 14 C-14.32901873 16.02367348 -15.66241419 18.04447886 -17 20.0625 C-17.66 21.05894531 -18.32 22.05539062 -19 23.08203125 C-21.82171829 27.19887415 -24.86403767 31.11924661 -28 35 C-28.66 34.67 -29.32 34.34 -30 34 C-28.625 31.5 -28.625 31.5 -27 29 C-26.34 29 -25.68 29 -25 29 C-24.5978125 27.88625 -24.5978125 27.88625 -24.1875 26.75 C-23 24 -23 24 -21.4375 21.9375 C-19.88261296 20.11877107 -19.88261296 20.11877107 -19.5625 18 C-19 16 -19 16 -17.1875 14.1953125 C-14.19152616 11.18863875 -12.02981216 7.76412783 -9.68359375 4.2421875 C-6.92896564 0.57361085 -4.52191439 -0.79133502 0 0 Z " fill="#FB1D6C" transform="translate(545,554)"/>
<path d="M0 0 C0.66 0.33 1.32 0.66 2 1 C6.76480746 20.2583317 4.18346155 43.12437588 -1 62 C-1.99 62.495 -1.99 62.495 -3 63 C-2.68798326 60.95825942 -2.37536431 58.91661087 -2.0625 56.875 C-1.80146484 55.16957031 -1.80146484 55.16957031 -1.53515625 53.4296875 C-1.22172068 51.42095444 -0.88036621 49.41556679 -0.47265625 47.42382812 C0.15704964 42.86236357 0.12313768 38.38780133 0.09765625 33.7890625 C0.0962413 32.82092621 0.09482635 31.85278992 0.09336853 30.85531616 C0.08779365 27.77851201 0.07524577 24.70178197 0.0625 21.625 C0.05748175 19.53255314 0.05291941 17.44010513 0.04882812 15.34765625 C0.03783245 10.2317425 0.02058515 5.11588379 0 0 Z " fill="#F91E6B" transform="translate(725,428)"/>
<path d="M0 0 C0.99 0.495 0.99 0.495 2 1 C2.8515625 3.72265625 2.8515625 3.72265625 3.625 7.0625 C3.88539063 8.16722656 4.14578125 9.27195312 4.4140625 10.41015625 C4.60742188 11.26480469 4.80078125 12.11945313 5 13 C5.8765625 12.95359375 6.753125 12.9071875 7.65625 12.859375 C16.46636334 12.60868072 24.80093004 13.36799513 33.5 14.8125 C34.51384766 14.97782227 35.52769531 15.14314453 36.57226562 15.31347656 C42.36191492 16.32809827 47.57058998 17.74420941 53 20 C49.21879639 21.0970034 46.95693664 20.69565291 43.125 19.6875 C32.35776602 17.06163782 21.65650761 15.78258729 10.59667969 15.42919922 C6.89737185 15.27701801 5.15569322 15.10379548 2 13 C1.26953125 9.9609375 1.26953125 9.9609375 0.8125 6.375 C0.65394531 5.18648438 0.49539063 3.99796875 0.33203125 2.7734375 C0.22246094 1.85820312 0.11289062 0.94296875 0 0 Z " fill="#FB1A65" transform="translate(559,292)"/>
<path d="M0 0 C14.84469954 0.60838933 26.46606053 9.58491906 36.50390625 20.1484375 C40.6145034 25.23570395 44.00133215 30.47382169 45 37 C42.3656807 34.61656825 40.77957313 32.06086579 39 29 C29.6644785 14.27710464 16.64044658 5.67100255 0 1 C0 0.67 0 0.34 0 0 Z " fill="#FC206F" transform="translate(606,395)"/>
<path d="M0 0 C0.33 0 0.66 0 1 0 C1.03758423 1.63859985 1.03758423 1.63859985 1.07592773 3.31030273 C1.17168776 7.44986349 1.27146224 11.58932021 1.37231445 15.72875977 C1.41503844 17.50412526 1.45674203 19.27951567 1.49731445 21.05493164 C1.76481835 32.72272526 2.22653742 44.35440579 3 56 C-4.45386697 48.54613303 -1.91648038 24.90151796 -2 15 C-1.78540114 3.57080228 -1.78540114 3.57080228 0 0 Z " fill="#FB1D69" transform="translate(322,452)"/>
<path d="M0 0 C0.99 0.33 1.98 0.66 3 1 C-5.5454464 6.8462297 -14.16578097 12.42155545 -23.18725586 17.51123047 C-30.97395166 21.76132007 -30.97395166 21.76132007 -36.0625 28.625 C-36.23591116 31.07518211 -36.23591116 31.07518211 -34.5625 32.8125 C-34.046875 33.204375 -33.53125 33.59625 -33 34 C-34.65 33.67 -36.3 33.34 -38 33 C-38.8125 30.375 -38.8125 30.375 -39 27 C-35.07519112 20.96183249 -29.61633079 18.08771867 -23.4375 14.625 C-21.45926781 13.49249494 -19.48269142 12.35709247 -17.5078125 11.21875 C-16.55938477 10.6721875 -15.61095703 10.125625 -14.63378906 9.5625 C-10.30908816 6.99686357 -6.21865977 4.14204675 -2.14453125 1.1953125 C-1.43683594 0.80085937 -0.72914063 0.40640625 0 0 Z " fill="#FC1E6B" transform="translate(481,693)"/>
<path d="M0 0 C3.66075665 1.02958781 5.94252644 2.72774235 8.6875 5.25 C21.98901122 17.21143359 37.77066542 20.7621878 55 23 C55 23.33 55 23.66 55 24 C36.32992744 24.81305155 20.36157075 18.8701855 6.015625 6.95703125 C3.78219597 4.78852748 1.89275537 2.46825531 0 0 Z " fill="#FC1D6A" transform="translate(403,585)"/>
<path d="M0 0 C3.19213592 9.25930817 -6.9777976 24.49818309 -11 33 C-17.03346689 45.35564459 -17.03346689 45.35564459 -21 48 C-19.46207788 42.65550822 -16.9868733 38.1436099 -14.3125 33.3125 C-9.51481601 24.4613301 -5.90527917 15.43160352 -2.7109375 5.89672852 C-1.9431581 3.84835003 -1.00872925 1.93959452 0 0 Z " fill="#FC1D69" transform="translate(653,502)"/>
<path d="M0 0 C2.9715027 1.48575135 3.04602842 3.52389987 4.125 6.625 C8.14624309 17.38773886 13.18453392 27.61317178 20.84765625 36.265625 C21.22792969 36.83796875 21.60820312 37.4103125 22 38 C21.67 38.99 21.34 39.98 21 41 C12.02567951 30.26023941 0 14.62338463 0 0 Z " fill="#FC1E6C" transform="translate(379,542)"/>
<path d="M0 0 C-2 1.33333333 -4 2.66666667 -6 4 C-6.73343428 7.06556598 -6.73343428 7.06556598 -7 10 C-4.08808601 10.970638 -2.00564158 11.17812562 1.03515625 11.28125 C2.49598633 11.33732422 2.49598633 11.33732422 3.98632812 11.39453125 C6.04101104 11.46497752 8.09569857 11.53528951 10.15039062 11.60546875 C11.12298828 11.64285156 12.09558594 11.68023438 13.09765625 11.71875 C14.43582397 11.76418945 14.43582397 11.76418945 15.80102539 11.81054688 C18 12 18 12 20 13 C19.67 13.66 19.34 14.32 19 15 C-0.19642857 15.46071429 -0.19642857 15.46071429 -6 13 C-7.7734375 11.1484375 -7.7734375 11.1484375 -9 9 C-8.875 5.375 -8.875 5.375 -8 2 C-4.77208445 -0.1519437 -3.71599191 -0.20086443 0 0 Z " fill="#FB1D6B" transform="translate(471,669)"/>
<path d="M0 0 C0.99 0 1.98 0 3 0 C0.82571203 4.59138982 -1.95147062 8.81999298 -4.63671875 13.125 C-6.23580672 15.83405231 -6.23580672 15.83405231 -5.70703125 18.375 C-5.47371094 18.91125 -5.24039062 19.4475 -5 20 C-2.02934491 19.65772428 -2.02934491 19.65772428 1 19 C1.33 18.34 1.66 17.68 2 17 C2.99 17.33 3.98 17.66 5 18 C0.86805556 22.86111111 0.86805556 22.86111111 -3.125 23.5 C-6 23 -6 23 -7.9375 21.9375 C-9.65329991 18.8086884 -8.72538219 16.42015952 -8 13 C-6.78288619 10.53575387 -5.59337417 8.35453208 -4.125 6.0625 C-3.77308594 5.47404297 -3.42117188 4.88558594 -3.05859375 4.27929688 C-2.0078125 2.59765625 -2.0078125 2.59765625 0 0 Z " fill="#F6246E" transform="translate(501,736)"/>
<path d="M0 0 C0 0.99 0 1.98 0 3 C-2.0354055 4.46070503 -3.99279112 5.68634751 -6.16796875 6.90625 C-6.79979568 7.2722229 -7.43162262 7.6381958 -8.08259583 8.01525879 C-10.11167484 9.18743572 -12.14924775 10.34386163 -14.1875 11.5 C-15.54291277 12.27891334 -16.89773838 13.05884939 -18.25195312 13.83984375 C-20.75443861 15.28183872 -23.2605213 16.71716248 -25.77026367 18.14648438 C-28.95240821 19.92073719 -28.95240821 19.92073719 -31.67700195 21.80664062 C-34 23 -34 23 -36.3125 22.6875 C-36.869375 22.460625 -37.42625 22.23375 -38 22 C-36.88367188 21.46117187 -35.76734375 20.92234375 -34.6171875 20.3671875 C-29.63023222 17.87261286 -24.88722342 15.02025681 -20.125 12.125 C-17.59765625 10.59765625 -17.59765625 10.59765625 -15.0703125 9.0703125 C-14.24563477 8.57047852 -13.42095703 8.07064453 -12.57128906 7.55566406 C-8.38821907 5.02485111 -4.19411922 2.51244625 0 0 Z " fill="#FA1F6E" transform="translate(487,704)"/>
<path d="M0 0 C-1.26240319 3.78720957 -2.40854377 4.05209944 -5.8125 6 C-14.85460842 11.55258548 -22.34527402 18.76023928 -29 27 C-29.66 26.67 -30.32 26.34 -31 26 C-24.10135979 17.21373973 -17.32556053 10.28153247 -8 4 C-6.93394531 3.25878906 -5.86789062 2.51757812 -4.76953125 1.75390625 C-2 0 -2 0 0 0 Z " fill="#FC1D69" transform="translate(555,403)"/>
<path d="M0 0 C2.9375 1.3125 2.9375 1.3125 3.8125 3.4375 C3.874375 4.365625 3.874375 4.365625 3.9375 5.3125 C2.9475 4.6525 1.9575 3.9925 0.9375 3.3125 C-2.0325 2.8175 -2.0325 2.8175 -5.0625 2.3125 C-5.0625 8.9125 -5.0625 15.5125 -5.0625 22.3125 C-7.0625 21.3125 -7.0625 21.3125 -7.73046875 19.30859375 C-8.88717845 13.61201591 -9.36223249 9.01132707 -8.0625 3.3125 C-5.66971244 0.08743851 -3.99605402 -0.89707335 0 0 Z " fill="#FB2578" transform="translate(482.0625,556.6875)"/>
<path d="M0 0 C0.33 0 0.66 0 1 0 C1.33 12.21 1.66 24.42 2 37 C-1.19515571 30.60968858 -1.15799019 24.61891929 -1.125 17.625 C-1.12886719 16.81289063 -1.13273437 16.00078125 -1.13671875 15.1640625 C-1.12847864 10.02223445 -0.73703454 5.08904803 0 0 Z " fill="#FC1869" transform="translate(374,491)"/>
<path d="M0 0 C0.66 0.33 1.32 0.66 2 1 C1.505 1.391875 1.01 1.78375 0.5 2.1875 C-1.45593143 4.55091715 -1.24207973 6.01435003 -1 9 C0.77140344 9.77299187 0.77140344 9.77299187 3 10 C5.30145073 8.88513086 5.30145073 8.88513086 7.5 7.1875 C10.26448883 5.19460651 12.90691025 3.44109863 16 2 C12.21143391 6.9404012 8.82795782 10.60637447 3 13 C-0.3125 12.5625 -0.3125 12.5625 -3 11 C-4.375 8.375 -4.375 8.375 -5 6 C-3.35 4.02 -1.7 2.04 0 0 Z " fill="#F62169" transform="translate(472,744)"/>
<path d="M0 0 C0.66 0 1.32 0 2 0 C0.07621683 5.36267018 -2.97559161 9.86830985 -6.02734375 14.6484375 C-7.47887714 17.1146071 -8.53927947 19.22987994 -9.56640625 21.8515625 C-10.03949219 22.89054687 -10.51257813 23.92953125 -11 25 C-11.99 25.33 -12.98 25.66 -14 26 C-14.33 24.68 -14.66 23.36 -15 22 C-14.34 22 -13.68 22 -13 22 C-13 21.34 -13 20.68 -13 20 C-12.34 20 -11.68 20 -11 20 C-10.7421875 19.30132812 -10.484375 18.60265625 -10.21875 17.8828125 C-8.87578335 14.70617984 -7.25543281 11.84287157 -5.5 8.875 C-4.58734375 7.32425781 -4.58734375 7.32425781 -3.65625 5.7421875 C-2.48309669 3.79984404 -1.25869124 1.88803686 0 0 Z " fill="#FB1D65" transform="translate(522,431)"/>
<path d="M0 0 C9.57 0.66 19.14 1.32 29 2 C20.65216332 6.17391834 9.85346654 3.99480053 1 2 C0.67 1.34 0.34 0.68 0 0 Z " fill="#FB1F6F" transform="translate(435,651)"/>
<path d="M0 0 C4.38286524 0.49293839 7.22955446 3.35804996 10.4375 6.125 C11.30701294 6.86617065 11.30701294 6.86617065 12.1940918 7.62231445 C16.14817498 11.06789524 19.28679225 14.47798708 22 19 C21.67 19.66 21.34 20.32 21 21 C19.85724609 19.71416016 19.85724609 19.71416016 18.69140625 18.40234375 C13.32436136 12.43547318 8.10596641 6.87023126 1.546875 2.171875 C1.03640625 1.78515625 0.5259375 1.3984375 0 1 C0 0.67 0 0.34 0 0 Z " fill="#FD1E6A" transform="translate(485,432)"/>
<path d="M0 0 C0.99 0.33 1.98 0.66 3 1 C-7.18906606 11.74259681 -7.18906606 11.74259681 -14 15 C-12.58143752 11.66564695 -10.90068437 9.80434174 -8.125 7.5 C-5.28915088 5.10241847 -2.57491762 2.68220585 0 0 Z " fill="#FD1D6C" transform="translate(550,591)"/>
<path d="M0 0 C0.99 0.495 0.99 0.495 2 1 C3.23498385 4.94854928 4.0659186 8.9664667 5 13 C10.28 13 15.56 13 21 13 C21 13.33 21 13.66 21 14 C15.06 14 9.12 14 3 14 C1.60995008 9.13482528 0.60543875 4.94441643 0 0 Z " fill="#F92471" transform="translate(559,292)"/>
<path d="M0 0 C0.66 0 1.32 0 2 0 C1.20736384 7.76783437 -0.41889487 15.3629639 -2 23 C-2.33 23 -2.66 23 -3 23 C-3.49155247 14.93489832 -2.04937325 7.78273888 0 0 Z " fill="#FC1D67" transform="translate(326,428)"/>
<path d="M0 0 C2.57256972 3.12920761 4.09936527 6.25611109 5.625 10 C6.05039062 11.03125 6.47578125 12.0625 6.9140625 13.125 C7.781957 15.42273507 8.48192326 17.60533418 9 20 C3.89821369 15.62704031 1.0847785 10.13119822 0.25 3.5 C0.1675 2.345 0.085 1.19 0 0 Z " fill="#FD1B68" transform="translate(418,308)"/>
<path d="M0 0 C-2.60130627 1.1734316 -5.20568508 2.33892508 -7.8125 3.5 C-8.55048828 3.83386719 -9.28847656 4.16773438 -10.04882812 4.51171875 C-10.76103516 4.82753906 -11.47324219 5.14335937 -12.20703125 5.46875 C-12.8616333 5.76201172 -13.51623535 6.05527344 -14.19067383 6.35742188 C-16 7 -16 7 -19 7 C-19 6.34 -19 5.68 -19 5 C-16.58848443 3.96520787 -14.17205531 2.9470628 -11.75 1.9375 C-11.06808594 1.64294922 -10.38617188 1.34839844 -9.68359375 1.04492188 C-5.98010605 -0.48321625 -3.8159653 -1.24129373 0 0 Z " fill="#FC1F6B" transform="translate(425,329)"/>
<path d="M0 0 C14.73786408 2.73786408 14.73786408 2.73786408 18 6 C11.18012971 5.56699236 6.08356979 4.09212176 0 1 C0 0.67 0 0.34 0 0 Z " fill="#FB1D69" transform="translate(416,645)"/>
<path d="M0 0 C0 3 0 3 -2.0625 5.4375 C-4.25078757 7.75673901 -4.25078757 7.75673901 -3.875 10.1875 C-3.03225102 12.18733041 -3.03225102 12.18733041 -1 14 C-2.65 13.67 -4.3 13.34 -6 13 C-6.8125 10.375 -6.8125 10.375 -7 7 C-5.27894898 4.00537122 -3.12614509 1.56307254 0 0 Z " fill="#F32368" transform="translate(449,713)"/>
<path d="M0 0 C6.02770138 0.47587116 10.76678289 3.19722957 16 6 C13.13421241 7.16161779 11.98369837 6.9946154 8.984375 6.00390625 C7.91703125 5.52824219 6.8496875 5.05257813 5.75 4.5625 C4.67234375 4.08941406 3.5946875 3.61632812 2.484375 3.12890625 C1.66453125 2.75636719 0.8446875 2.38382812 0 2 C0 1.34 0 0.68 0 0 Z " fill="#FC1E6C" transform="translate(468,424)"/>
<path d="M0 0 C0 3 0 3 -1.57421875 4.97265625 C-2.62029297 6.00712891 -2.62029297 6.00712891 -3.6875 7.0625 C-4.37199219 7.75472656 -5.05648437 8.44695313 -5.76171875 9.16015625 C-8.09475633 11.07788871 -10.15419589 12.03810824 -13 13 C-11.38405168 10.95880212 -9.7143618 8.95927063 -8 7 C-7.34 7 -6.68 7 -6 7 C-5.67 6.01 -5.34 5.02 -5 4 C-3.37667033 2.61423077 -1.71275535 1.27358732 0 0 Z " fill="#FC1D6A" transform="translate(549,608)"/>
<path d="M0 0 C1.32 0.33 2.64 0.66 4 1 C4 5 4 5 1.25 7.8125 C-2 10 -2 10 -4.375 9.8125 C-4.91125 9.544375 -5.4475 9.27625 -6 9 C-4.35 8.34 -2.7 7.68 -1 7 C-1 6.34 -1 5.68 -1 5 C-0.34 5 0.32 5 1 5 C0.67 3.35 0.34 1.7 0 0 Z " fill="#FD267D" transform="translate(488,683)"/>
<path d="M0 0 C0.33 0.99 0.66 1.98 1 3 C-0.36328125 5.4453125 -0.36328125 5.4453125 -2.3125 8.125 C-3.26576172 9.45917969 -3.26576172 9.45917969 -4.23828125 10.8203125 C-6 13 -6 13 -8 14 C-6.6744419 10.37723685 -5.05653045 7.36494652 -2.875 4.1875 C-2.33617187 3.39730469 -1.79734375 2.60710938 -1.2421875 1.79296875 C-0.83226562 1.20128906 -0.42234375 0.60960937 0 0 Z " fill="#FB1F70" transform="translate(535,578)"/>
<path d="M0 0 C0.65234375 1.734375 0.65234375 1.734375 1 4 C0.00390625 6.140625 0.00390625 6.140625 -1.4375 8.25 C-1.91058594 8.95640625 -2.38367188 9.6628125 -2.87109375 10.390625 C-3.24363281 10.92171875 -3.61617187 11.4528125 -4 12 C-4.99 11.67 -5.98 11.34 -7 11 C-5.67826848 7.03480543 -4.03505387 4.83924395 -1 2 C-0.67 1.34 -0.34 0.68 0 0 Z " fill="#FC2577" transform="translate(531,564)"/>
<path d="M0 0 C-9.41002278 4.59225513 -9.41002278 4.59225513 -14 4 C-12.66065756 1.32131513 -11.48307603 1.25045922 -8.6875 0.3125 C-7.90761719 0.04050781 -7.12773437 -0.23148438 -6.32421875 -0.51171875 C-3.81725489 -1.03839183 -2.39867657 -0.8178554 0 0 Z " fill="#FD1D6C" transform="translate(518,658)"/>
<path d="M0 0 C0.33 0.66 0.66 1.32 1 2 C-0.27395742 5.82187225 -2.69107017 7.82094865 -6 10 C-6.99 9.67 -7.98 9.34 -9 9 C-7.625 7.5 -7.625 7.5 -6 6 C-5.34 6 -4.68 6 -4 6 C-3.71125 5.38125 -3.4225 4.7625 -3.125 4.125 C-2 2 -2 2 0 0 Z " fill="#FD1D6F" transform="translate(503,729)"/>
<path d="M0 0 C2.9375 1.3125 2.9375 1.3125 3.8125 3.4375 C3.874375 4.365625 3.874375 4.365625 3.9375 5.3125 C2.9475 4.6525 1.9575 3.9925 0.9375 3.3125 C-1.39449388 3.23344936 -3.73082622 3.22451231 -6.0625 3.3125 C-5.7325 2.3225 -5.4025 1.3325 -5.0625 0.3125 C-3.0625 -0.6875 -3.0625 -0.6875 0 0 Z " fill="#F81E6B" transform="translate(482.0625,556.6875)"/>
<path d="M0 0 C3.15133488 1.83827868 6.11964908 3.75972706 9 6 C2.375 5.25 2.375 5.25 -1 3 C-0.67 2.01 -0.34 1.02 0 0 Z " fill="#F92673" transform="translate(639,320)"/>
<path d="M0 0 C3.3566285 2.23775234 3.57996014 2.93320048 4.6875 6.625 C4.93886719 7.44226563 5.19023438 8.25953125 5.44921875 9.1015625 C5.72185547 10.04128906 5.72185547 10.04128906 6 11 C3.44706986 8.54003371 1.65756954 6.15727531 0 3 C0 2.01 0 1.02 0 0 Z " fill="#FB1C66" transform="translate(645,421)"/>
<path d="M0 0 C-0.33 0.66 -0.66 1.32 -1 2 C-3.9375 2.75 -3.9375 2.75 -7 3 C-7.66 2.34 -8.32 1.68 -9 1 C-5.64919071 -1.10976881 -3.77897651 -1.0497157 0 0 Z " fill="#F92D83" transform="translate(560,589)"/>
<path d="M0 0 C0.99 0.33 1.98 0.66 3 1 C2.67 2.65 2.34 4.3 2 6 C1.01 6 0.02 6 -1 6 C-1.33 4.68 -1.66 3.36 -2 2 C-1.34 2 -0.68 2 0 2 C0 1.34 0 0.68 0 0 Z " fill="#FA2973" transform="translate(509,451)"/>
<path d="M0 0 C3.29714793 0.32971479 4.6226839 0.6226839 7 3 C4.03 2.67 1.06 2.34 -2 2 C-1.34 1.34 -0.68 0.68 0 0 Z " fill="#FC2474" transform="translate(427,648)"/>
<path d="M0 0 C2 1 2 1 2 1 Z " fill="#ED4497" transform="translate(710,381)"/>
<path d="" fill="#666666" transform="translate(0,0)"/>
<path d="" fill="#DE428D" transform="translate(0,0)"/>
<path d="" fill="#EE4094" transform="translate(0,0)"/>
<path d="" fill="#F14093" transform="translate(0,0)"/>
<path d="" fill="#F33E92" transform="translate(0,0)"/>
<path d="" fill="#E94192" transform="translate(0,0)"/>
<path d="" fill="#F53E94" transform="translate(0,0)"/>
<path d="" fill="#F73D94" transform="translate(0,0)"/>
<path d="" fill="#F93D96" transform="translate(0,0)"/>
<path d="" fill="#FE3F97" transform="translate(0,0)"/>
<path d="" fill="#E64793" transform="translate(0,0)"/>
<path d="" fill="#FA4199" transform="translate(0,0)"/>
<path d="" fill="#FB3F98" transform="translate(0,0)"/>
<path d="" fill="#F83E97" transform="translate(0,0)"/>
<path d="" fill="#F53F99" transform="translate(0,0)"/>
<path d="" fill="#F73D96" transform="translate(0,0)"/>
<path d="" fill="#F74399" transform="translate(0,0)"/>
<path d="" fill="#F94197" transform="translate(0,0)"/>
<path d="" fill="#F73F94" transform="translate(0,0)"/>
<path d="" fill="#F04094" transform="translate(0,0)"/>
<path d="" fill="#F84199" transform="translate(0,0)"/>
<path d="" fill="#F53D96" transform="translate(0,0)"/>
<path d="" fill="#F74096" transform="translate(0,0)"/>
<path d="" fill="#F53F97" transform="translate(0,0)"/>
<path d="" fill="#F53F97" transform="translate(0,0)"/>
<path d="" fill="#EF4091" transform="translate(0,0)"/>
<path d="" fill="#F14091" transform="translate(0,0)"/>
<path d="" fill="#F44C9D" transform="translate(0,0)"/>
<path d="" fill="#F24998" transform="translate(0,0)"/>
<path d="" fill="#ED4496" transform="translate(0,0)"/>
<path d="" fill="#F14394" transform="translate(0,0)"/>
<path d="" fill="#F14194" transform="translate(0,0)"/>
<path d="" fill="#FA3F98" transform="translate(0,0)"/>
<path d="" fill="#FB3C97" transform="translate(0,0)"/>
<path d="" fill="#FE3C9C" transform="translate(0,0)"/>
<path d="" fill="#F94196" transform="translate(0,0)"/>
<path d="" fill="#ED4596" transform="translate(0,0)"/>
<path d="" fill="#EA4798" transform="translate(0,0)"/>
<path d="" fill="#F14595" transform="translate(0,0)"/>
<path d="" fill="#EF4394" transform="translate(0,0)"/>
<path d="" fill="#F84599" transform="translate(0,0)"/>
<path d="" fill="#F14293" transform="translate(0,0)"/>
<path d="" fill="#EF4292" transform="translate(0,0)"/>
<path d="" fill="#E54993" transform="translate(0,0)"/>
<path d="" fill="#E94491" transform="translate(0,0)"/>
</svg>
